<svg width="432" height="432" viewBox="0 0 432 432" fill="none" xmlns="http://www.w3.org/2000/svg">
  <g transform="translate(216 202)">
    <path d="M-50 -8c-15 8-25 23-25 42 0 26 21 47 47 47 5 0 9-1 13-2-10 13-26 22-44 22-31 0-56-25-56-56 0-26 18-48 42-54 9-3 17-2 23 1Z" fill="#B8BFFF"/>
    <path d="M50 -8c15 8 25 23 25 42 0 26-21 47-47 47-5 0-9-1-13-2 10 13 26 22 44 22 31 0 56-25 56-56 0-26-18-48-42-54-9-3-17-2-23 1Z" fill="#5DD4C3"/>
    <circle cx="0" cy="8" r="22" fill="#FF8FA3"/>
    <circle cx="-30" cy="64" r="7" fill="#5DD4C3"/>
    <circle cx="0" cy="64" r="7" fill="#FF8FA3"/>
    <circle cx="30" cy="64" r="7" fill="#FFD56B"/>
  </g>
</svg>