<svg width="512" height="512" viewBox="0 0 512 512" fill="none" xmlns="http://www.w3.org/2000/svg">
  <rect width="512" height="512" fill="#F8FBFF" rx="113"/>
  <g transform="translate(256 240)">
    <path d="M-60 -10c-17 9-30 27-30 49 0 30 24 55 55 55 5 0 10-1 15-2-12 16-30 26-51 26-36 0-65-29-65-65 0-30 21-55 48-63 10-3 20-2 28 0Z" fill="#B8BFFF"/>
    <path d="M60 -10c17 9 30 27 30 49 0 30-24 55-55 55-5 0-10-1-15-2 12 16 30 26 51 26 36 0 65-29 65-65 0-30-21-55-48-63-10-3-20-2-28 0Z" fill="#5DD4C3"/>
    <circle cx="0" cy="10" r="26" fill="#FF8FA3"/>
    <circle cx="-35" cy="75" r="8" fill="#5DD4C3"/>
    <circle cx="0" cy="75" r="8" fill="#FF8FA3"/>
    <circle cx="35" cy="75" r="8" fill="#FFD56B"/>
  </g>
</svg>