<svg width="1024" height="1024" viewBox="0 0 1024 1024" fill="none" xmlns="http://www.w3.org/2000/svg">
  <rect width="1024" height="1024" fill="#F8FBFF" rx="226"/>
  <g transform="translate(512 512)">
    <path d="M-180 -30c-50 25-85 78-85 138 0 86 70 156 156 156 15 0 30-2 44-6-33 44-86 72-146 72-102 0-185-83-185-185 0-86 59-158 138-180 30-9 58-6 78 5Z" fill="#B8BFFF"/>
    <path d="M180 -30c50 25 85 78 85 138 0 86-70 156-156 156-15 0-30-2-44-6 33 44 86 72 146 72 102 0 185-83 185-185 0-86-59-158-138-180-30-9-58-6-78 5Z" fill="#5DD4C3"/>
    <circle cx="0" cy="30" r="60" fill="#FF8FA3"/>
    <circle cx="-90" cy="180" r="18" fill="#5DD4C3"/>
    <circle cx="0" cy="180" r="18" fill="#FF8FA3"/>
    <circle cx="90" cy="180" r="18" fill="#FFD56B"/>
  </g>
</svg>