<svg width="1024" height="1024" viewBox="0 0 1024 1024" fill="none" xmlns="http://www.w3.org/2000/svg">
  <rect width="1024" height="1024" fill="#F8FBFF" rx="226"/>
  <g transform="translate(512 480)">
    <path d="M-120 -20c-35 18-60 55-60 98 0 61 49 110 110 110 11 0 21-2 31-4-23 31-61 51-103 51-72 0-130-58-130-130 0-60 42-111 97-126 21-6 41-4 55 1Z" fill="#B8BFFF"/>
    <path d="M120 -20c35 18 60 55 60 98 0 61-49 110-110 110-11 0-21-2-31-4 23 31 61 51 103 51 72 0 130-58 130-130 0-60-42-111-97-126-21-6-41-4-55 1Z" fill="#5DD4C3"/>
    <circle cx="0" cy="20" r="52" fill="#FF8FA3"/>
    <circle cx="-70" cy="150" r="16" fill="#5DD4C3"/>
    <circle cx="0" cy="150" r="16" fill="#FF8FA3"/>
    <circle cx="70" cy="150" r="16" fill="#FFD56B"/>
  </g>
</svg>